<svg xmlns="http://www.w3.org/2000/svg" width="18" height="20" viewBox="0 0 18 20">
  <g id="calendar" transform="translate(-3 -2)" opacity="0.15">
    <g id="Calendar-2" data-name="Calendar" transform="translate(3 2)">
      <path id="Path_28404" data-name="Path 28404" d="M12.791,0a.712.712,0,0,1,.661.734h0V1.77C16.461,2.062,18,3.725,18,6.714h0v8.27C18,18.311,16.1,20,12.374,20H5.626C1.9,20,0,18.311,0,14.985H0V6.714A4.542,4.542,0,0,1,2.07,2.469h0l.1-.056a.685.685,0,0,1,.635.029A.713.713,0,0,1,2.73,3.707,3.142,3.142,0,0,0,1.374,6.714h0V6.98H14.061a.7.7,0,0,1,0,1.4H1.374v6.607c0,2.538,1.235,3.591,4.252,3.609h6.748c2.974,0,4.243-1.079,4.243-3.618h0V6.706c0-2.211-.965-3.282-3.165-3.538h0V3.84a.695.695,0,0,1-1.383-.053h0V.673l.013-.111a.7.7,0,0,1,.21-.379A.68.68,0,0,1,12.791,0Zm.4,14.2.111.007a.864.864,0,0,1,.505.249.892.892,0,0,1,.258.629.87.87,0,1,1-.87-.884Zm-4.17,0,.109.007a.869.869,0,1,1-.109-.007Zm-4.169,0,.111.007a.864.864,0,0,1,.505.249.892.892,0,0,1,.258.629.87.87,0,1,1-.87-.884Zm8.339-3.582.111.007a.864.864,0,0,1,.505.249.892.892,0,0,1,.258.629.87.87,0,1,1-.87-.884Zm-4.17,0,.109.007a.869.869,0,1,1-.109-.007Zm-4.169,0,.111.007a.864.864,0,0,1,.505.249.892.892,0,0,1,.258.629.87.87,0,1,1-.87-.884ZM5.239.106A.7.7,0,0,1,5.93.735h0V1.7h3.93a.7.7,0,0,1,0,1.4H5.913v.7a.7.7,0,0,1-.2.5.681.681,0,0,1-.491.2h0l-.1-.01a.7.7,0,0,1-.569-.7h0V.735l.019-.1A.7.7,0,0,1,5.239.106Z"/>
    </g>
  </g>
</svg>
