<svg xmlns="http://www.w3.org/2000/svg" width="20" height="20" viewBox="0 0 20 20">
  <g id="time" transform="translate(-2 -2)" opacity="0.15">
    <g id="Time-Circle" transform="translate(2 2)">
      <path id="Path_28405" data-name="Path 28405" d="M10,0A10,10,0,1,1,2.073,16.1a.727.727,0,0,1,1.152-.888A8.548,8.548,0,1,0,1.455,10a8.619,8.619,0,0,0,.1,1.3.727.727,0,0,1-1.437.22A10.006,10.006,0,0,1,10,0ZM9.661,5.109a.728.728,0,0,1,.727.728h0v4.446l3.424,2.042a.727.727,0,0,1-.744,1.249h0L9.288,11.32a.731.731,0,0,1-.354-.625h0V5.837A.728.728,0,0,1,9.661,5.109Z"/>
    </g>
  </g>
</svg>
